HIERARCHY
ROOT Hips
{
	OFFSET 0.00000 0.00000 0.00000
	CHANNELS 6 Xposition Yposition Zposition Zrotation Yrotation Xrotation 
	JOINT LHipJoint
	{
		OFFSET 0 0 0
		CHANNELS 3 Zrotation Yrotation Xrotation
		JOINT LeftUpLeg
		{
			OFFSET 1.57358 -1.76629 0.73362
			CHANNELS 3 Zrotation Yrotation Xrotation
			JOINT LeftLeg
			{
				OFFSET 2.40600 -6.61045 0.00000
				CHANNELS 3 Zrotation Yrotation Xrotation
				JOINT LeftFoot
				{
					OFFSET 2.66168 -7.31291 0.00000
					CHANNELS 3 Zrotation Yrotation Xrotation
					JOINT LeftToeBase
					{
						OFFSET 0.20870 -0.57341 2.12506
						CHANNELS 3 Zrotation Yrotation Xrotation
						End Site
						{
							OFFSET 0.00000 -0.00000 1.10557
						}
					}
				}
			}
		}
	}
	JOINT RHipJoint
	{
		OFFSET 0 0 0
		CHANNELS 3 Zrotation Yrotation Xrotation
		JOINT RightUpLeg
		{
			OFFSET -1.49299 -1.76629 0.73362
			CHANNELS 3 Zrotation Yrotation Xrotation
			JOINT RightLeg
			{
				OFFSET -2.43663 -6.69460 0.00000
				CHANNELS 3 Zrotation Yrotation Xrotation
				JOINT RightFoot
				{
					OFFSET -2.62959 -7.22474 0.00000
					CHANNELS 3 Zrotation Yrotation Xrotation
					JOINT RightToeBase
					{
						OFFSET -0.25784 -0.70841 2.21862
						CHANNELS 3 Zrotation Yrotation Xrotation
						End Site
						{
							OFFSET -0.00000 -0.00000 1.16452
						}
					}
				}
			}
		}
	}
	JOINT LowerBack
	{
		OFFSET 0 0 0
		CHANNELS 3 Zrotation Yrotation Xrotation
		JOINT Spine
		{
			OFFSET -0.00034 2.12399 -0.25450
			CHANNELS 3 Zrotation Yrotation Xrotation
			JOINT Spine1
			{
				OFFSET 0.05594 2.14379 -0.03318
				CHANNELS 3 Zrotation Yrotation Xrotation
				JOINT Neck
				{
					OFFSET 0 0 0
					CHANNELS 3 Zrotation Yrotation Xrotation
					JOINT Neck1
					{
						OFFSET -0.09835 1.62725 0.24211
						CHANNELS 3 Zrotation Yrotation Xrotation
						JOINT Head
						{
							OFFSET 0.10849 1.66041 -0.22648
							CHANNELS 3 Zrotation Yrotation Xrotation
							End Site
							{
								OFFSET 0.04385 1.68267 -0.10541
							}
						}
					}
				}
				JOINT LeftShoulder
				{
					OFFSET 0 0 0
					CHANNELS 3 Zrotation Yrotation Xrotation
					JOINT LeftArm
					{
						OFFSET 3.29108 0.79398 -0.68179
						CHANNELS 3 Zrotation Yrotation Xrotation
						JOINT LeftForeArm
						{
							OFFSET 5.15310 -0.00000 -0.00000
							CHANNELS 3 Zrotation Yrotation Xrotation
							JOINT LeftHand
							{
								OFFSET 3.75138 -0.00000 -0.00000
								CHANNELS 3 Zrotation Yrotation Xrotation
								JOINT LeftFingerBase
								{
									OFFSET 0 0 0
									CHANNELS 3 Zrotation Yrotation Xrotation
									JOINT LeftHandIndex1
									{
										OFFSET 0.52917 -0.00000 0.00000
										CHANNELS 3 Zrotation Yrotation Xrotation
										End Site
										{
											OFFSET 0.42663 -0.00000 0.00000
										}
									}
								}
								JOINT LThumb
								{
									OFFSET 0 0 0
									CHANNELS 3 Zrotation Yrotation Xrotation
									End Site
									{
										OFFSET 0.43315 -0.00000 0.43315
									}
								}
							}
						}
					}
				}
				JOINT RightShoulder
				{
					OFFSET 0 0 0
					CHANNELS 3 Zrotation Yrotation Xrotation
					JOINT RightArm
					{
						OFFSET -3.07414 1.06285 -0.44338
						CHANNELS 3 Zrotation Yrotation Xrotation
						JOINT RightForeArm
						{
							OFFSET -5.29613 -0.00000 0.00000
							CHANNELS 3 Zrotation Yrotation Xrotation
							JOINT RightHand
							{
								OFFSET -3.76144 -0.00000 -0.00000
								CHANNELS 3 Zrotation Yrotation Xrotation
								JOINT RightFingerBase
								{
									OFFSET 0 0 0
									CHANNELS 3 Zrotation Yrotation Xrotation
									JOINT RightHandIndex1
									{
										OFFSET -0.74732 -0.00000 0.00000
										CHANNELS 3 Zrotation Yrotation Xrotation
										End Site
										{
											OFFSET -0.60251 -0.00000 0.00000
										}
									}
								}
								JOINT RThumb
								{
									OFFSET 0 0 0
									CHANNELS 3 Zrotation Yrotation Xrotation
									End Site
									{
										OFFSET -0.61171 -0.00000 0.61171
									}
								}
							}
						}
					}
				}
			}
		}
	}
}
MOTION
Frames: 8
Frame Time: .0083333
-10.793 17.3174 -33.0451 0 0 0 0 0 0 -21 0 0 0 0 0 0 0 0 0 0 0 0 0 0 21 0 0 0 0 0 0 0 0 0 0 0 0 0 0 0 0 0 0 0 0 0 0 -16 0 0 21 0 0 11 0 0 0 -8 0 0 0 0 0 0 0 0 0 0 0 0 0 0 0 0 0 0 0 0 8 0 0 0 0 0 0 0 0 0 0 0 0 0 0 0 0 0
-10.7930 17.3174 -33.0451 -0.1232 0.6206 0.5282 0.0000 0.0000 0.0000 -20.3531 -4.9111 -5.8655 9.7469 17.2650 58.6390 -0.3959 -15.4967 17.2678 0.1333 -2.3536 -6.4840 0.0000 0.0000 0.0000 23.3050 14.1948 -19.7123 -3.0302 -10.7437 31.4204 -0.0349 -5.5151 -8.8401 -0.1300 -2.3243 6.4028 -2.0787 -3.4856 4.6119 4.3736 -4.6721 0.5519 5.9535 -2.3258 -1.4775 -12.1461 0.1929 -7.1292 4.5890 1.1350 16.0250 3.5425 0.1686 5.9401 0.0000 0.0000 0.0000 -92.0766 -1.7228 10.0383 21.9813 -32.9559 -6.5757 -0.0000 0.0000 -1.1735 18.4571 27.0539 8.6319 -7.1250 0.0000 -0.0000 -13.1010 57.7954 -4.1504 0.0000 0.0000 0.0000 0.0000 -0.0000 -0.0000 0.0000 -0.0000 -0.0000 0.0000 0.0000 0.0000 0.0000 0.0000 0.0000 0.0000 0.0000 0.0000 0.0000 -0.0000 0.0000
-10.8074 17.3791 -32.7866 -0.0904 1.1246 0.4700 0.0000 0.0000 0.0000 -20.1870 -5.4835 -7.8293 10.1452 17.4907 59.9727 -0.8051 -15.8731 8.7832 2.7290 -10.2428 -29.7668 0.0000 0.0000 0.0000 23.5962 13.6397 -18.2510 -2.9066 -10.5423 30.7514 -0.0574 -5.7417 -9.6732 -0.1303 -2.3264 6.4085 -2.0536 -3.4277 4.5384 4.2177 -4.5980 0.6643 5.7618 -2.2933 -1.3440 -11.9318 -0.0878 -7.5344 4.6282 0.7708 16.4444 3.5063 -0.0017 6.1742 0.0000 -0.0000 0.0000 -91.9221 -1.7011 10.5445 21.7628 -32.7079 -6.4572 -0.0000 -0.0000 0.0920 17.7004 25.2968 7.7658 -7.1250 0.0000 -0.0000 -12.9592 55.8946 -3.5059 0.0000 -0.0000 0.0000 0.0000 -0.0000 -0.0000 0.0000 -0.0000 -0.0000 0.0000 0.0000 0.0000 0.0000 0.0000 0.0000 0.0000 0.0000 0.0000 0.0000 -0.0000 0.0000
-10.8180 17.4174 -32.5325 -0.0149 1.3788 0.5102 0.0000 0.0000 0.0000 -20.0663 -5.8952 -9.6181 10.5133 17.6886 61.1907 -0.7253 -14.8931 6.2217 3.3075 -11.1769 -32.8787 0.0000 0.0000 0.0000 23.7913 13.1458 -17.1263 -2.8427 -10.4360 30.4005 -0.0932 -5.7512 -10.4743 -0.1247 -2.2768 6.2712 -2.0215 -3.4304 4.2311 4.0755 -4.6032 0.7158 5.5697 -2.3012 -1.1331 -11.8289 -0.1017 -7.7342 4.6516 0.7590 16.7876 3.5040 -0.0078 6.3184 -0.0000 -0.0000 0.0000 -91.8894 -1.3135 10.8171 21.7266 -32.6667 -6.4377 -0.0000 -0.0000 1.1094 17.3009 23.7997 7.1643 -7.1250 0.0000 -0.0000 -12.6481 54.3278 -2.9348 -0.0000 -0.0000 0.0000 0.0000 -0.0000 -0.0000 0.0000 -0.0000 -0.0000 0.0000 0.0000 0.0000 0.0000 0.0000 0.0000 0.0000 0.0000 0.0000 0.0000 -0.0000 0.0000
-10.8582 17.4280 -32.3323 -0.2199 -3.3869 1.7629 0.0000 0.0000 0.0000 -19.5165 -2.2772 -14.0589 10.8863 17.8790 62.4119 -0.6278 -13.8964 6.0356 2.2964 -9.4579 -27.2383 0.0000 0.0000 0.0000 24.2894 16.0478 -16.7899 -2.7802 -10.3305 30.0537 -0.1487 -3.9429 -9.8191 -0.0925 -1.9619 5.4005 -2.3080 -1.7597 2.9099 3.9794 -2.3814 0.6743 5.4890 -1.1955 -0.6729 -11.6704 -0.0854 -7.3999 4.8545 0.6836 16.4772 3.5305 -0.0125 6.1644 -0.0000 0.0000 0.0000 -91.7291 -1.2014 11.0264 21.4924 -32.3986 -6.3117 -0.0000 -0.0000 1.5771 17.1993 23.9877 7.1724 -7.1250 0.0000 -0.0000 -12.8377 54.4955 -3.0327 -0.0000 0.0000 0.0000 87.8474 -7.5628 1.9498 -10.1460 16.9677 -1.5173 0.0000 0.0000 20.2985 -15.8438 23.4653 -6.4474 7.1250 -0.0000 -0.0000 8.2488 -5.9042 7.4358
-10.8655 17.4427 -32.0996 -0.4379 -2.9045 1.6654 0.0000 0.0000 0.0000 -19.0367 -2.8392 -15.8585 11.1874 18.0256 63.3886 -0.5392 -13.0327 6.9648 0.9495 -6.2055 -17.3819 0.0000 0.0000 0.0000 24.7689 15.2789 -15.7242 -2.7329 -10.2495 29.7886 -0.1913 -3.8625 -10.6082 -0.0918 -1.9544 5.3795 -1.8939 -1.7883 2.7946 3.8216 -2.4120 0.8683 5.0795 -1.2183 -0.4297 -11.6785 -0.2835 -7.2462 5.1401 0.3499 16.2767 3.5966 -0.1487 6.0998 0.0000 0.0000 0.0000 -91.5493 -1.1237 11.2584 21.2612 -32.1320 -6.1883 -0.0000 -0.0000 2.4437 16.3518 23.7071 6.7278 -7.1250 0.0000 -0.0000 -13.5612 54.0566 -3.0620 0.0000 0.0000 0.0000 88.2130 -7.5367 8.7287 -12.2028 20.1081 -2.1715 0.0000 0.0000 14.1131 -14.1293 7.9544 -1.9951 7.1250 -0.0000 -0.0000 9.2160 -21.8183 5.1966
-10.8736 17.4474 -31.8675 -0.7018 -3.3896 1.6119 0.0000 0.0000 0.0000 -18.5576 -2.5836 -17.5060 11.4034 18.1269 64.0849 -0.4664 -12.1035 6.1856 0.3726 -3.9208 -10.8539 0.0000 0.0000 0.0000 25.3304 15.1162 -14.5712 -2.6824 -10.1622 29.5037 -0.2113 -3.7413 -10.8873 -0.0706 -1.7136 4.7149 -1.9355 -1.5891 2.9820 4.0571 -2.1434 0.7674 5.3521 -1.0782 -0.6551 -12.0955 -0.3704 -6.9082 5.1214 0.2461 16.4066 3.6521 -0.2328 6.0940 -0.0000 -0.0000 0.0000 -92.0364 -0.4256 11.0854 21.1938 -32.0539 -6.1525 -0.0000 -0.0000 3.4949 15.1050 22.9960 6.0194 -7.1250 0.0000 -0.0000 -14.4741 53.1271 -2.9426 -0.0000 -0.0000 0.0000 87.6611 -7.5075 9.8467 -12.5755 20.6621 -2.3013 0.0000 0.0000 13.7071 -13.5411 7.1913 -1.7269 7.1250 -0.0000 -0.0000 9.6768 -22.6145 5.2854
-10.8819 17.4616 -31.6288 -0.8244 -4.1455 1.5475 0.0000 0.0000 0.0000 -18.2756 -2.1581 -19.1442 11.5192 18.1799 64.4564 -0.3993 -11.1170 4.0818 0.2662 -3.3190 -9.1681 0.0000 0.0000 0.0000 25.7460 15.1456 -13.2800 -2.6222 -10.0568 29.1607 -0.2156 -3.6831 -10.9215 -0.0550 -1.5134 4.1627 -5.3301 -1.8253 6.8922 6.7069 -2.5856 -1.7658 10.5151 -1.0012 -5.1977 -14.3942 0.5992 -5.8658 3.3812 2.0050 18.0374 3.5974 0.2711 6.3137 0.0000 -0.0000 0.0000 -97.0265 4.2193 8.1078 21.6598 -32.5904 -6.4016 -0.0000 -0.0000 4.1869 15.5328 23.2224 6.2542 -7.1250 0.0000 -0.0000 -14.1543 53.4271 -2.9804 0.0000 -0.0000 0.0000 82.2042 -11.2489 15.4978 -13.1863 21.5596 -2.5213 0.0000 0.0000 11.0757 -13.3017 6.9846 -1.6468 7.1250 -0.0000 -0.0000 9.8618 -22.8317 5.3395
